<svg id="visual" viewBox="0 0 960 540" width="960" height="540" xmlns="http://www.w3.org/2000/svg" xmlns:xlink="http://www.w3.org/1999/xlink" version="1.1"><rect x="0" y="0" width="960" height="540" fill="#fff"></rect><g transform="translate(-158.001809739449 713.7430478898109)"><path d="M412.4 -718C532.4 -645.1 626 -530.3 617.6 -403.7C609.1 -277 498.6 -138.5 466.8 -18.3C435 101.8 482.1 203.7 444.8 251C407.4 298.4 285.7 291.2 197.5 259.5C109.3 227.7 54.7 171.4 -29.8 223C-114.3 274.7 -228.7 434.4 -273.4 441.1C-318.2 447.7 -293.3 301.4 -254.4 202.3C-215.5 103.3 -162.6 51.7 -182.3 -11.3C-201.9 -74.3 -294.1 -148.7 -301.6 -193.4C-309.2 -238.2 -232.1 -253.3 -167.7 -358.3C-103.3 -463.3 -51.7 -658.2 47.3 -740.1C146.2 -822 292.5 -791 412.4 -718" fill="#DBE7C9"></path></g></svg>