<svg id="visual" viewBox="0 0 960 540" width="960" height="540" xmlns="http://www.w3.org/2000/svg" xmlns:xlink="http://www.w3.org/1999/xlink" version="1.1"><rect x="0" y="0" width="960" height="540" fill="#50623A"></rect><path d="M0 155L22.8 159C45.7 163 91.3 171 137 174.5C182.7 178 228.3 177 274 181.3C319.7 185.7 365.3 195.3 411.2 195.8C457 196.3 503 187.7 548.8 181.2C594.7 174.7 640.3 170.3 686 166.5C731.7 162.7 777.3 159.3 823 160C868.7 160.7 914.3 165.3 937.2 167.7L960 170L960 0L937.2 0C914.3 0 868.7 0 823 0C777.3 0 731.7 0 686 0C640.3 0 594.7 0 548.8 0C503 0 457 0 411.2 0C365.3 0 319.7 0 274 0C228.3 0 182.7 0 137 0C91.3 0 45.7 0 22.8 0L0 0Z" fill="#50623a"></path><path d="M0 179L22.8 175.7C45.7 172.3 91.3 165.7 137 156.7C182.7 147.7 228.3 136.3 274 131.2C319.7 126 365.3 127 411.2 124.8C457 122.7 503 117.3 548.8 121.7C594.7 126 640.3 140 686 145.5C731.7 151 777.3 148 823 145.5C868.7 143 914.3 141 937.2 140L960 139L960 0L937.2 0C914.3 0 868.7 0 823 0C777.3 0 731.7 0 686 0C640.3 0 594.7 0 548.8 0C503 0 457 0 411.2 0C365.3 0 319.7 0 274 0C228.3 0 182.7 0 137 0C91.3 0 45.7 0 22.8 0L0 0Z" fill="#465c35"></path><path d="M0 88L22.8 90.2C45.7 92.3 91.3 96.7 137 100.2C182.7 103.7 228.3 106.3 274 112.7C319.7 119 365.3 129 411.2 127.5C457 126 503 113 548.8 105.5C594.7 98 640.3 96 686 97.2C731.7 98.3 777.3 102.7 823 108.3C868.7 114 914.3 121 937.2 124.5L960 128L960 0L937.2 0C914.3 0 868.7 0 823 0C777.3 0 731.7 0 686 0C640.3 0 594.7 0 548.8 0C503 0 457 0 411.2 0C365.3 0 319.7 0 274 0C228.3 0 182.7 0 137 0C91.3 0 45.7 0 22.8 0L0 0Z" fill="#3d5631"></path><path d="M0 97L22.8 93.2C45.7 89.3 91.3 81.7 137 77.7C182.7 73.7 228.3 73.3 274 72.2C319.7 71 365.3 69 411.2 70.5C457 72 503 77 548.8 83C594.7 89 640.3 96 686 96.3C731.7 96.7 777.3 90.3 823 83.5C868.7 76.7 914.3 69.3 937.2 65.7L960 62L960 0L937.2 0C914.3 0 868.7 0 823 0C777.3 0 731.7 0 686 0C640.3 0 594.7 0 548.8 0C503 0 457 0 411.2 0C365.3 0 319.7 0 274 0C228.3 0 182.7 0 137 0C91.3 0 45.7 0 22.8 0L0 0Z" fill="#33502d"></path><path d="M0 50L22.8 47C45.7 44 91.3 38 137 36.3C182.7 34.7 228.3 37.3 274 40C319.7 42.7 365.3 45.3 411.2 48.8C457 52.3 503 56.7 548.8 55.5C594.7 54.3 640.3 47.7 686 48.2C731.7 48.7 777.3 56.3 823 57.2C868.7 58 914.3 52 937.2 49L960 46L960 0L937.2 0C914.3 0 868.7 0 823 0C777.3 0 731.7 0 686 0C640.3 0 594.7 0 548.8 0C503 0 457 0 411.2 0C365.3 0 319.7 0 274 0C228.3 0 182.7 0 137 0C91.3 0 45.7 0 22.8 0L0 0Z" fill="#294b29"></path></svg>