<svg id="visual" viewBox="0 0 960 540" width="960" height="540" xmlns="http://www.w3.org/2000/svg" xmlns:xlink="http://www.w3.org/1999/xlink" version="1.1"><rect x="0" y="0" width="960" height="540" fill="#222831"></rect><path d="M0 380L32 377.7C64 375.3 128 370.7 192 328.5C256 286.3 320 206.7 384 206C448 205.3 512 283.7 576 314C640 344.3 704 326.7 768 314.2C832 301.7 896 294.3 928 290.7L960 287L960 541L928 541C896 541 832 541 768 541C704 541 640 541 576 541C512 541 448 541 384 541C320 541 256 541 192 541C128 541 64 541 32 541L0 541Z" fill="#25282f"></path><path d="M0 275L32 261.3C64 247.7 128 220.3 192 241.2C256 262 320 331 384 320.7C448 310.3 512 220.7 576 201.3C640 182 704 233 768 248.5C832 264 896 244 928 234L960 224L960 541L928 541C896 541 832 541 768 541C704 541 640 541 576 541C512 541 448 541 384 541C320 541 256 541 192 541C128 541 64 541 32 541L0 541Z" fill="#31363f"></path><path d="M0 179L32 196C64 213 128 247 192 274C256 301 320 321 384 313.5C448 306 512 271 576 258.8C640 246.7 704 257.3 768 278.5C832 299.7 896 331.3 928 347.2L960 363L960 541L928 541C896 541 832 541 768 541C704 541 640 541 576 541C512 541 448 541 384 541C320 541 256 541 192 541C128 541 64 541 32 541L0 541Z" fill="#545964"></path><path d="M0 344L32 359.3C64 374.7 128 405.3 192 406.7C256 408 320 380 384 381.8C448 383.7 512 415.3 576 430C640 444.7 704 442.3 768 412C832 381.7 896 323.3 928 294.2L960 265L960 541L928 541C896 541 832 541 768 541C704 541 640 541 576 541C512 541 448 541 384 541C320 541 256 541 192 541C128 541 64 541 32 541L0 541Z" fill="#545964"></path><path d="M0 436L32 415.5C64 395 128 354 192 349.3C256 344.7 320 376.3 384 385.2C448 394 512 380 576 391.2C640 402.3 704 438.7 768 451.3C832 464 896 453 928 447.5L960 442L960 541L928 541C896 541 832 541 768 541C704 541 640 541 576 541C512 541 448 541 384 541C320 541 256 541 192 541C128 541 64 541 32 541L0 541Z" fill="#31363f"></path><path d="M0 481L32 475.3C64 469.7 128 458.3 192 463.3C256 468.3 320 489.7 384 497C448 504.3 512 497.7 576 497.5C640 497.3 704 503.7 768 493.2C832 482.7 896 455.3 928 441.7L960 428L960 541L928 541C896 541 832 541 768 541C704 541 640 541 576 541C512 541 448 541 384 541C320 541 256 541 192 541C128 541 64 541 32 541L0 541Z" fill="#25282f"></path></svg>