<svg id="visual" viewBox="0 0 960 540" width="960" height="540" xmlns="http://www.w3.org/2000/svg" xmlns:xlink="http://www.w3.org/1999/xlink" version="1.1"><rect x="0" y="0" width="960" height="540" fill="#EEEEEE"></rect><defs><linearGradient id="grad1_0" x1="43.8%" y1="0%" x2="100%" y2="100%"><stop offset="14.444444444444446%" stop-color="#eeeeee" stop-opacity="1"></stop><stop offset="85.55555555555554%" stop-color="#eeeeee" stop-opacity="1"></stop></linearGradient></defs><defs><linearGradient id="grad2_0" x1="0%" y1="0%" x2="56.3%" y2="100%"><stop offset="14.444444444444446%" stop-color="#eeeeee" stop-opacity="1"></stop><stop offset="85.55555555555554%" stop-color="#eeeeee" stop-opacity="1"></stop></linearGradient></defs><g transform="translate(960, 0)"><path d="M0 270C-45.5 260.4 -91 250.8 -132.5 229.5C-174 208.2 -211.6 175.2 -233.8 135C-256.1 94.8 -263 47.4 -270 0L0 0Z" fill="#222831"></path></g><g transform="translate(0, 540)"><path d="M0 -270C47.1 -262.8 94.1 -255.7 135 -233.8C175.9 -212 210.6 -175.4 232.1 -134C253.6 -92.6 261.8 -46.3 270 0L0 0Z" fill="#222831"></path></g></svg>