<svg id="eInlVX3uJ5j1" width="150px" xmlns="http://www.w3.org/2000/svg" xmlns:xlink="http://www.w3.org/1999/xlink" viewBox="0 0 200 200" shape-rendering="geometricPrecision" text-rendering="geometricPrecision"><g transform="translate(-898.805542-250.508102)"><ellipse rx="16.339869" ry="16.339869" transform="matrix(.239855 0.008768-.008768 0.239855 918.480907 268.808759)" fill="#31363f" stroke-width="0"/><ellipse rx="16.339869" ry="16.339869" transform="matrix(.239855 0.008768-.008768 0.239855 1016.520121 268.808759)" fill="#31363f" stroke-width="0"/><ellipse rx="16.339869" ry="16.339869" transform="matrix(.239855 0.008768-.008768 0.239855 1016.520121 334.168235)" fill="#31363f" stroke-width="0"/><ellipse rx="16.339869" ry="16.339869" transform="matrix(.239855 0.008768-.008768 0.239855 1016.520121 399.527711)" fill="#31363f" stroke-width="0"/><ellipse rx="16.339869" ry="16.339869" transform="matrix(.239855 0.008768-.008768 0.239855 1016.520121 432.207449)" fill="#31363f" stroke-width="0"/><ellipse rx="16.339869" ry="16.339869" transform="matrix(.239855 0.008768-.008768 0.239855 1081.879597 432.207449)" fill="#31363f" stroke-width="0"/><ellipse rx="16.339869" ry="16.339869" transform="matrix(.239855 0.008768-.008768 0.239855 1049.199859 432.207449)" fill="#31363f" stroke-width="0"/><ellipse rx="16.339869" ry="16.339869" transform="matrix(.239855 0.008768-.008768 0.239855 1081.879597 399.527711)" fill="#31363f" stroke-width="0"/><ellipse rx="16.339869" ry="16.339869" transform="matrix(.239855 0.008768-.008768 0.239855 1049.199859 399.527711)" fill="#31363f" stroke-width="0"/><ellipse rx="16.339869" ry="16.339869" transform="matrix(.239855 0.008768-.008768 0.239855 1049.199859 432.207449)" fill="#31363f" stroke-width="0"/><ellipse rx="16.339869" ry="16.339869" transform="matrix(.239855 0.008768-.008768 0.239855 918.480907 399.527711)" fill="#31363f" stroke-width="0"/><ellipse rx="16.339869" ry="16.339869" transform="matrix(.239855 0.008768-.008768 0.239855 918.480907 432.207449)" fill="#31363f" stroke-width="0"/><ellipse rx="16.339869" ry="16.339869" transform="matrix(.239855 0.008768-.008768 0.239855 983.840383 432.207449)" fill="#31363f" stroke-width="0"/><ellipse rx="16.339869" ry="16.339869" transform="matrix(.239855 0.008768-.008768 0.239855 951.160645 432.207449)" fill="#31363f" stroke-width="0"/><ellipse rx="16.339869" ry="16.339869" transform="matrix(.239855 0.008768-.008768 0.239855 983.840383 399.527711)" fill="#31363f" stroke-width="0"/><ellipse rx="16.339869" ry="16.339869" transform="matrix(.239855 0.008768-.008768 0.239855 951.160645 399.527711)" fill="#31363f" stroke-width="0"/><ellipse rx="16.339869" ry="16.339869" transform="matrix(.239855 0.008768-.008768 0.239855 951.160645 432.207449)" fill="#31363f" stroke-width="0"/><ellipse rx="16.339869" ry="16.339869" transform="matrix(.239855 0.008768-.008768 0.239855 1016.520121 366.847973)" fill="#31363f" stroke-width="0"/><ellipse rx="16.339869" ry="16.339869" transform="matrix(.239855 0.008768-.008768 0.239855 1081.879597 366.847973)" fill="#31363f" stroke-width="0"/><ellipse rx="16.339869" ry="16.339869" transform="matrix(.239855 0.008768-.008768 0.239855 1081.879597 334.168235)" fill="#31363f" stroke-width="0"/><ellipse rx="16.339869" ry="16.339869" transform="matrix(.239855 0.008768-.008768 0.239855 1049.199859 366.847973)" fill="#31363f" stroke-width="0"/><ellipse rx="16.339869" ry="16.339869" transform="matrix(.239855 0.008768-.008768 0.239855 1081.879597 399.527711)" fill="#31363f" stroke-width="0"/><ellipse rx="16.339869" ry="16.339869" transform="matrix(.239855 0.008768-.008768 0.239855 1049.199859 334.168235)" fill="#31363f" stroke-width="0"/><ellipse rx="16.339869" ry="16.339869" transform="matrix(.239855 0.008768-.008768 0.239855 1016.520121 301.488497)" fill="#31363f" stroke-width="0"/><ellipse rx="16.339869" ry="16.339869" transform="matrix(.239855 0.008768-.008768 0.239855 1081.879597 301.488497)" fill="#31363f" stroke-width="0"/><ellipse rx="16.339869" ry="16.339869" transform="matrix(.239855 0.008768-.008768 0.239855 1049.199859 301.488497)" fill="#31363f" stroke-width="0"/><ellipse rx="16.339869" ry="16.339869" transform="matrix(.239855 0.008768-.008768 0.239855 1049.199859 366.847973)" fill="#31363f" stroke-width="0"/><ellipse rx="16.339869" ry="16.339869" transform="matrix(.239855 0.008768-.008768 0.239855 1081.879597 268.808759)" fill="#31363f" stroke-width="0"/><ellipse rx="16.339869" ry="16.339869" transform="matrix(.239855 0.008768-.008768 0.239855 1049.199859 268.808759)" fill="#31363f" stroke-width="0"/><ellipse rx="16.339869" ry="16.339869" transform="matrix(.239855 0.008768-.008768 0.239855 918.480907 334.168235)" fill="#31363f" stroke-width="0"/><ellipse rx="16.339869" ry="16.339869" transform="matrix(.239855 0.008768-.008768 0.239855 918.480907 366.847973)" fill="#31363f" stroke-width="0"/><ellipse rx="16.339869" ry="16.339869" transform="matrix(.239855 0.008768-.008768 0.239855 983.840383 366.847973)" fill="#31363f" stroke-width="0"/><ellipse rx="16.339869" ry="16.339869" transform="matrix(.239855 0.008768-.008768 0.239855 951.160645 366.847973)" fill="#31363f" stroke-width="0"/><ellipse rx="16.339869" ry="16.339869" transform="matrix(.239855 0.008768-.008768 0.239855 983.840383 334.168235)" fill="#31363f" stroke-width="0"/><ellipse rx="16.339869" ry="16.339869" transform="matrix(.239855 0.008768-.008768 0.239855 951.160645 334.168235)" fill="#31363f" stroke-width="0"/><ellipse rx="16.339869" ry="16.339869" transform="matrix(.239855 0.008768-.008768 0.239855 918.480907 301.488497)" fill="#31363f" stroke-width="0"/><ellipse rx="16.339869" ry="16.339869" transform="matrix(.239855 0.008768-.008768 0.239855 1081.879597 301.488497)" fill="#31363f" stroke-width="0"/><ellipse rx="16.339869" ry="16.339869" transform="matrix(.239855 0.008768-.008768 0.239855 951.160645 301.488497)" fill="#31363f" stroke-width="0"/><ellipse rx="16.339869" ry="16.339869" transform="matrix(.239855 0.008768-.008768 0.239855 951.160645 366.847973)" fill="#31363f" stroke-width="0"/><ellipse rx="16.339869" ry="16.339869" transform="matrix(.239855 0.008768-.008768 0.239855 983.840383 268.808759)" fill="#31363f" stroke-width="0"/><ellipse rx="16.339869" ry="16.339869" transform="matrix(.239855 0.008768-.008768 0.239855 984.126903 301.201977)" fill="#31363f" stroke-width="0"/><ellipse rx="16.339869" ry="16.339869" transform="matrix(.239855 0.008768-.008768 0.239855 951.160645 268.808759)" fill="#31363f" stroke-width="0"/></g></svg>
