<svg id="erCqUu9wRxa1" xmlns="http://www.w3.org/2000/svg" xmlns:xlink="http://www.w3.org/1999/xlink" viewBox="0 0 24 24" shape-rendering="geometricPrecision" text-rendering="geometricPrecision" project-id="d021445e3dbe44e3876c5493d4c305b8" export-id="21d79f96632440e7b960bae8e482d0dd" cached="false"><path d="M18.72,3.99997h-13.35c-.17207-.00806-.34405.01789-.50608.07638s-.31093.14836-.43819.26446-.23036.25618-.30341.41218-.11462.32489-.12232.49698L4,18.63c.01008.3601.15766.7028.41243.9575.25477.2548.59741.4024.95757.4125h13.35c.3501-.0156.6802-.1678.9195-.4239s.3687-.5957.3605-.9461v-13.38003c.0029-.1675-.0285-.33381-.0922-.48875s-.1584-.29522-.2783-.41227-.2623-.20836-.4187-.26837-.3234-.08744-.4908-.08061ZM9,17.34h-2.33v-7.13h2.33v7.13ZM7.89,9.12997c-.16259.00567-.3246-.02235-.47584-.08229s-.28847-.15051-.40303-.26602-.20402-.25346-.26272-.40519-.0854-.31396-.07841-.4765c-.00719-.1643.02004-.32828.07995-.48143s.15117-.2921.26792-.40791.25643-.20595.41006-.26461.31784-.08457.48207-.07605c.16259-.00566.3246.02235.47584.08229s.28847.15051.40303.26602.20402.25346.26272.40519.0854.31396.07841.4765c.00719.1643-.02004.32828-.07995.48143s-.15117.2921-.26792.40791-.25643.20595-.41006.26461-.31784.08457-.48207.07605ZM17.34,17.34h-2.34v-3.9c0-.93-.33-1.57-1.16-1.57-.2578.0022-.5087.0841-.7181.2345s-.3673.3619-.4519.6055c-.065.1826-.0922.3765-.08.57v4.06h-2.3v-7.13h2.3v1c.2045-.3757.5088-.6875.8794-.9011.3706-.2135.793-.32042,1.2206-.30893c1.51,0,2.65,1.00003,2.65,3.13003v4.21Z" transform="matrix(1.436357 0 0 1.436345-5.236364-5.23582)"/></svg>
